<svg t="1753577958250" class="icon" viewBox="0 0 1112 1024" version="1.1" xmlns="http://www.w3.org/2000/svg" p-id="4573" width="200" height="200"><path d="M952.181449 1024.005564H158.694126C71.050677 1024.005564 0 953.093996 0 865.617475V158.438168C0 70.961648 71.050677 0.050079 158.694126 0.050079h793.487323C1039.824898 0.050079 1112.862033 70.961648 1112.862033 158.438168v707.179307c0 87.47652-73.037135 158.388089-160.680584 158.388089zM311.601369 289.455415L89.028963 512.027822l217.008096 222.572406 61.207412-55.643101-161.364995-166.929305 166.929305-161.364995-61.207412-61.207412z m400.630332-133.543444h-144.672064L478.530674 795.80764H400.630332v72.336032h155.800685l77.900342-639.895669h77.900342V155.911971z m89.028963 133.543444l-61.207412 61.207412 166.929305 161.364995-161.364995 166.929305 61.207412 55.643101 217.008097-222.572406-222.572407-222.572407z" p-id="4574"></path></svg>