<svg t="1753722990219" class="icon" viewBox="0 0 1024 1024" version="1.1" xmlns="http://www.w3.org/2000/svg" p-id="4569" width="200" height="200"><path d="M35.310933 59.733333h953.378134A35.310933 35.310933 0 0 1 1024 95.044267V804.522667a35.310933 35.310933 0 0 1-35.310933 35.3024H35.310933A35.310933 35.310933 0 0 1 0 804.522667V95.044267A35.310933 35.310933 0 0 1 35.310933 59.733333z m8.823467 44.322134v691.456h944.554667V104.046933H44.1344z" fill="#7C848E" p-id="4570"></path><path d="M336.128 238.293333l31.479467 38.9888-169.557334 171.9552 169.557334 173.294934-31.488 37.649066L134.1952 449.194667 336.128 238.293333z m217.728-48.810666l43.639467 11.5456-125.2352 508.484266-44.407467-13.013333 126.0032-507.016533z m135.168 49.066666l202.402133 210.944-202.402133 210.952534-32.699733-37.691734 170.3424-172.970666-170.3424-172.4672 32.699733-38.766934z" fill="#7C848E" p-id="4571"></path><path d="M114.756267 919.611733m26.5984 0l732.458666 0q26.5984 0 26.5984 26.5984l0-0.008533q0 26.5984-26.5984 26.5984l-732.458666 0q-26.5984 0-26.5984-26.5984l0 0.008533q0-26.5984 26.5984-26.5984Z" fill="#7C848E" p-id="4572"></path></svg>